<?xml version="1.0" encoding="UTF-8"?>
<svg width="700pt" height="700pt" version="1.1" viewBox="0 0 700 700" xmlns="http://www.w3.org/2000/svg" xmlns:xlink="http://www.w3.org/1999/xlink">
 <defs>
  <symbol id="v" overflow="visible">
   <path d="m3.375-0.20312c-0.17969 0.09375-0.35938 0.16406-0.54688 0.20312-0.1875 0.050781-0.38672 0.078125-0.59375 0.078125-0.60547 0-1.0898-0.17188-1.4531-0.51562-0.35547-0.34375-0.53125-0.80469-0.53125-1.3906 0-0.58203 0.17578-1.0469 0.53125-1.3906 0.36328-0.34375 0.84766-0.51562 1.4531-0.51562 0.20703 0 0.40625 0.027344 0.59375 0.078125 0.1875 0.042969 0.36719 0.10547 0.54688 0.1875v0.76562c-0.17969-0.11328-0.35547-0.19531-0.53125-0.25-0.16797-0.0625-0.34375-0.09375-0.53125-0.09375-0.33594 0-0.60156 0.10938-0.79688 0.32812-0.1875 0.21094-0.28125 0.50781-0.28125 0.89062 0 0.375 0.09375 0.67188 0.28125 0.89062 0.19531 0.21875 0.46094 0.32812 0.79688 0.32812 0.1875 0 0.36328-0.023437 0.53125-0.078125 0.17578-0.0625 0.35156-0.14844 0.53125-0.26562z"/>
  </symbol>
  <symbol id="b" overflow="visible">
   <path d="m2.4688-2c-0.085938-0.039062-0.16406-0.066406-0.23438-0.078125-0.074219-0.019531-0.15234-0.03125-0.23438-0.03125-0.21875 0-0.39062 0.074219-0.51562 0.21875-0.125 0.14844-0.1875 0.35547-0.1875 0.625v1.2656h-0.875v-2.75h0.875v0.45312c0.11328-0.17578 0.24219-0.30469 0.39062-0.39062 0.14453-0.082031 0.32031-0.125 0.53125-0.125h0.09375c0.03125 0 0.082031 0.007812 0.15625 0.015625z"/>
  </symbol>
  <symbol id="a" overflow="visible">
   <path d="m3.1719-1.3906v0.26562h-2.0625c0.019531 0.19922 0.09375 0.35156 0.21875 0.45312 0.13281 0.10547 0.31641 0.15625 0.54688 0.15625 0.1875 0 0.375-0.023437 0.5625-0.078125 0.19531-0.050781 0.39453-0.13281 0.59375-0.25v0.67188c-0.19922 0.085938-0.40234 0.14844-0.60938 0.1875-0.21094 0.039062-0.41797 0.0625-0.625 0.0625-0.5 0-0.89062-0.125-1.1719-0.375-0.27344-0.25781-0.40625-0.61719-0.40625-1.0781 0-0.44531 0.13281-0.79688 0.40625-1.0469 0.26953-0.25781 0.64062-0.39062 1.1094-0.39062 0.4375 0 0.78516 0.13281 1.0469 0.39062 0.25781 0.26172 0.39062 0.60547 0.39062 1.0312zm-0.90625-0.28125c0-0.16406-0.054687-0.30078-0.15625-0.40625-0.09375-0.10156-0.21875-0.15625-0.375-0.15625-0.16797 0-0.30859 0.046875-0.42188 0.14062-0.10547 0.09375-0.16797 0.23438-0.1875 0.42188z"/>
  </symbol>
  <symbol id="l" overflow="visible">
   <path d="m1.6562-1.2344c-0.1875 0-0.32812 0.03125-0.42188 0.09375-0.085937 0.0625-0.125 0.15234-0.125 0.26562 0 0.11719 0.035156 0.20312 0.10938 0.26562 0.070312 0.0625 0.17578 0.09375 0.3125 0.09375 0.16406 0 0.30078-0.054687 0.40625-0.17188 0.11328-0.125 0.17188-0.27344 0.17188-0.45312v-0.09375zm1.3438-0.32812v1.5625h-0.89062v-0.40625c-0.11719 0.16797-0.24609 0.29297-0.39062 0.375-0.14844 0.070312-0.32812 0.10938-0.54688 0.10938-0.28125 0-0.51172-0.082031-0.6875-0.25-0.17969-0.16406-0.26562-0.38281-0.26562-0.65625 0-0.32031 0.10938-0.55469 0.32812-0.70312 0.21875-0.15625 0.56641-0.23438 1.0469-0.23438h0.51562v-0.0625c0-0.13281-0.058594-0.23438-0.17188-0.29688-0.10547-0.070312-0.27344-0.10938-0.5-0.10938-0.1875 0-0.36719 0.023437-0.53125 0.0625-0.15625 0.03125-0.30859 0.089844-0.45312 0.17188v-0.67188c0.1875-0.050781 0.375-0.085937 0.5625-0.10938 0.19531-0.019531 0.39062-0.03125 0.57812-0.03125 0.5 0 0.85938 0.10156 1.0781 0.29688 0.21875 0.1875 0.32812 0.50781 0.32812 0.95312z"/>
  </symbol>
  <symbol id="c" overflow="visible">
   <path d="m1.3906-3.5312v0.78125h0.90625v0.625h-0.90625v1.1719c0 0.125 0.019531 0.21484 0.0625 0.26562 0.050781 0.042969 0.15625 0.0625 0.3125 0.0625h0.45312v0.625h-0.76562c-0.34375 0-0.58984-0.070312-0.73438-0.21875-0.14844-0.14453-0.21875-0.39062-0.21875-0.73438v-1.1719h-0.4375v-0.625h0.4375v-0.78125z"/>
  </symbol>
  <symbol id="k" overflow="visible">
   <path d="m2.2969-2.3438v-1.4844h0.875v3.8281h-0.875v-0.39062c-0.125 0.15625-0.26172 0.27734-0.40625 0.35938-0.14844 0.070312-0.3125 0.10938-0.5 0.10938-0.34375 0-0.625-0.13281-0.84375-0.40625-0.21875-0.26953-0.32812-0.61719-0.32812-1.0469 0-0.42578 0.10938-0.76953 0.32812-1.0312 0.21875-0.26953 0.5-0.40625 0.84375-0.40625 0.1875 0 0.35156 0.039062 0.5 0.10938 0.14453 0.074219 0.28125 0.19531 0.40625 0.35938zm-0.57812 1.7812c0.1875 0 0.32812-0.066406 0.42188-0.20312 0.10156-0.14453 0.15625-0.34766 0.15625-0.60938 0-0.25781-0.054687-0.45703-0.15625-0.59375-0.09375-0.13281-0.23438-0.20312-0.42188-0.20312s-0.33594 0.070313-0.4375 0.20312c-0.09375 0.13672-0.14062 0.33594-0.14062 0.59375 0 0.26172 0.046875 0.46484 0.14062 0.60938 0.10156 0.13672 0.25 0.20312 0.4375 0.20312z"/>
  </symbol>
  <symbol id="j" overflow="visible">
   <path d="m1.8906-0.5625c0.1875 0 0.32812-0.066406 0.42188-0.20312 0.10156-0.14453 0.15625-0.34766 0.15625-0.60938 0-0.25781-0.054688-0.45703-0.15625-0.59375-0.09375-0.13281-0.23438-0.20312-0.42188-0.20312s-0.33594 0.070313-0.4375 0.20312c-0.10547 0.13672-0.15625 0.33594-0.15625 0.59375 0 0.26172 0.050781 0.46484 0.15625 0.60938 0.10156 0.13672 0.25 0.20312 0.4375 0.20312zm-0.59375-1.7812c0.125-0.16406 0.25781-0.28516 0.40625-0.35938 0.14453-0.070313 0.31641-0.10938 0.51562-0.10938 0.33203 0 0.60938 0.13672 0.82812 0.40625 0.21875 0.26172 0.32812 0.60547 0.32812 1.0312 0 0.42969-0.10938 0.77734-0.32812 1.0469-0.21875 0.27344-0.49609 0.40625-0.82812 0.40625-0.19922 0-0.37109-0.039062-0.51562-0.10938-0.14844-0.082031-0.28125-0.20312-0.40625-0.35938v0.39062h-0.875v-3.8281h0.875z"/>
  </symbol>
  <symbol id="i" overflow="visible">
   <path d="m0.0625-2.75h0.875l0.75 1.8594 0.625-1.8594h0.875l-1.1562 3.0156c-0.11719 0.30078-0.25 0.50781-0.40625 0.625-0.15625 0.125-0.35938 0.1875-0.60938 0.1875h-0.51562v-0.5625h0.28125c0.14453 0 0.25-0.027344 0.3125-0.078125 0.070312-0.054688 0.12891-0.13672 0.17188-0.25l0.015625-0.078125z"/>
  </symbol>
  <symbol id="h" overflow="visible">
   <path d="m0.46875-3.6719h2.5469v0.71875h-1.6094v0.6875h1.5156v0.70312h-1.5156v0.84375h1.6562v0.71875h-2.5938z"/>
  </symbol>
  <symbol id="g" overflow="visible">
   <path d="m0.42188-2.75h0.875v2.75h-0.875zm0-1.0781h0.875v0.71875h-0.875z"/>
  </symbol>
  <symbol id="f" overflow="visible">
   <path d="m2.6406-2.6719v0.71875c-0.11719-0.082031-0.23438-0.14062-0.35938-0.17188-0.11719-0.039062-0.24219-0.0625-0.375-0.0625-0.24219 0-0.43359 0.074219-0.57812 0.21875-0.13672 0.13672-0.20312 0.33594-0.20312 0.59375 0 0.26172 0.066406 0.46484 0.20312 0.60938 0.14453 0.13672 0.33594 0.20312 0.57812 0.20312 0.14453 0 0.27344-0.019531 0.39062-0.0625 0.125-0.039062 0.23828-0.097656 0.34375-0.17188v0.71875c-0.13672 0.054688-0.27734 0.085938-0.42188 0.10938-0.13672 0.03125-0.27734 0.046875-0.42188 0.046875-0.49219 0-0.875-0.125-1.1562-0.375-0.28125-0.25781-0.42188-0.61719-0.42188-1.0781 0-0.44531 0.14062-0.79688 0.42188-1.0469 0.28125-0.25781 0.66406-0.39062 1.1562-0.39062 0.14453 0 0.28516 0.015625 0.42188 0.046875 0.14453 0.023437 0.28516 0.054687 0.42188 0.09375z"/>
  </symbol>
  <symbol id="u" overflow="visible">
   <path d="m0.46875-3.6719h1.2031l0.82812 1.9688 0.84375-1.9688h1.2031v3.6719h-0.90625v-2.6875l-0.84375 1.9844h-0.59375l-0.84375-1.9844v2.6875h-0.89062z"/>
  </symbol>
  <symbol id="e" overflow="visible">
   <path d="m0.42188-3.8281h0.875v3.8281h-0.875z"/>
  </symbol>
  <symbol id="t" overflow="visible">
   <path d="m2.2344-3.8281v0.57812h-0.48438c-0.125 0-0.21484 0.027344-0.26562 0.078125-0.054687 0.042969-0.078125 0.12109-0.078125 0.23438v0.1875h0.76562v0.625h-0.76562v2.125h-0.875v-2.125h-0.4375v-0.625h0.4375v-0.1875c0-0.30078 0.082031-0.52344 0.25-0.67188 0.16406-0.14453 0.42578-0.21875 0.78125-0.21875z"/>
  </symbol>
  <symbol id="d" overflow="visible">
   <path d="m1.7344-2.1875c-0.19922 0-0.35156 0.074219-0.45312 0.21875-0.10547 0.13672-0.15625 0.33594-0.15625 0.59375 0 0.26172 0.050781 0.46484 0.15625 0.60938 0.10156 0.13672 0.25391 0.20312 0.45312 0.20312 0.1875 0 0.33203-0.066406 0.4375-0.20312 0.10156-0.14453 0.15625-0.34766 0.15625-0.60938 0-0.25781-0.054687-0.45703-0.15625-0.59375-0.10547-0.14453-0.25-0.21875-0.4375-0.21875zm0-0.625c0.46875 0 0.83203 0.13281 1.0938 0.39062 0.26953 0.25 0.40625 0.60156 0.40625 1.0469 0 0.46094-0.13672 0.82031-0.40625 1.0781-0.26172 0.25-0.625 0.375-1.0938 0.375-0.48047 0-0.85547-0.125-1.125-0.375-0.26172-0.25781-0.39062-0.61719-0.39062-1.0781 0-0.44531 0.12891-0.79688 0.39062-1.0469 0.26953-0.25781 0.64453-0.39062 1.125-0.39062z"/>
  </symbol>
  <symbol id="s" overflow="visible">
   <path d="m2.9688-2.2969c0.11328-0.16406 0.24219-0.28906 0.39062-0.375 0.15625-0.09375 0.32812-0.14062 0.51562-0.14062 0.3125 0 0.55078 0.10156 0.71875 0.29688 0.16406 0.1875 0.25 0.46875 0.25 0.84375v1.6719h-0.89062v-1.4375c0.007813-0.019531 0.015625-0.039062 0.015625-0.0625v-0.09375c0-0.19531-0.03125-0.33594-0.09375-0.42188-0.054688-0.09375-0.14844-0.14062-0.28125-0.14062-0.16797 0-0.29688 0.074219-0.39062 0.21875-0.085937 0.13672-0.125 0.33594-0.125 0.59375v1.3438h-0.89062v-1.4375c0-0.30078-0.027344-0.49219-0.078125-0.57812-0.054687-0.09375-0.14844-0.14062-0.28125-0.14062-0.16797 0-0.29688 0.074219-0.39062 0.21875-0.09375 0.13672-0.14062 0.32812-0.14062 0.57812v1.3594h-0.875v-2.75h0.875v0.40625c0.11328-0.15625 0.23828-0.26953 0.375-0.34375 0.14453-0.082031 0.30078-0.125 0.46875-0.125 0.1875 0 0.35156 0.046875 0.5 0.14062 0.14453 0.085937 0.25391 0.21094 0.32812 0.375z"/>
  </symbol>
  <symbol id="r" overflow="visible">
   <path d="m3.1875-1.6719v1.6719h-0.89062v-1.2812c0-0.23828-0.007813-0.39844-0.015625-0.48438-0.011719-0.09375-0.027344-0.16016-0.046875-0.20312-0.03125-0.0625-0.078125-0.10938-0.14062-0.14062s-0.13281-0.046875-0.20312-0.046875c-0.1875 0-0.33594 0.074219-0.4375 0.21875-0.10547 0.13672-0.15625 0.32812-0.15625 0.57812v1.3594h-0.875v-3.8281h0.875v1.4844c0.13281-0.16406 0.27344-0.28516 0.42188-0.35938 0.15625-0.070313 0.32031-0.10938 0.5-0.10938 0.3125 0 0.55078 0.10156 0.71875 0.29688 0.16406 0.1875 0.25 0.46875 0.25 0.84375z"/>
  </symbol>
  <symbol id="q" overflow="visible">
   <path d="m0.46875-3.6719h1.0469l1.3438 2.5156v-2.5156h0.89062v3.6719h-1.0625l-1.3281-2.5156v2.5156h-0.89062z"/>
  </symbol>
  <symbol id="p" overflow="visible">
   <path d="m0.39062-1.0781v-1.6719h0.89062v0.28125c0 0.14844-0.007812 0.33594-0.015625 0.5625v0.4375c0 0.23047 0.003906 0.39062 0.015625 0.48438 0.019531 0.09375 0.039062 0.16406 0.0625 0.20312 0.039062 0.0625 0.085938 0.10938 0.14062 0.14062 0.0625 0.03125 0.12891 0.046875 0.20312 0.046875 0.1875 0 0.33203-0.066406 0.4375-0.20312 0.10156-0.14453 0.15625-0.34375 0.15625-0.59375v-1.3594h0.875v2.75h-0.875v-0.39062c-0.13672 0.15625-0.27734 0.27734-0.42188 0.35938-0.14844 0.070312-0.30859 0.10938-0.48438 0.10938-0.32422 0-0.57031-0.097656-0.73438-0.29688-0.16797-0.19531-0.25-0.48438-0.25-0.85938z"/>
  </symbol>
  <symbol id="o" overflow="visible">
   <path d="m3.1875-1.6719v1.6719h-0.89062v-1.2812c0-0.23828-0.007813-0.39844-0.015625-0.48438-0.011719-0.09375-0.027344-0.16016-0.046875-0.20312-0.03125-0.0625-0.078125-0.10938-0.14062-0.14062s-0.13281-0.046875-0.20312-0.046875c-0.1875 0-0.33594 0.074219-0.4375 0.21875-0.10547 0.13672-0.15625 0.32812-0.15625 0.57812v1.3594h-0.875v-2.75h0.875v0.40625c0.13281-0.16406 0.27344-0.28516 0.42188-0.35938 0.15625-0.070313 0.32031-0.10938 0.5-0.10938 0.3125 0 0.55078 0.10156 0.71875 0.29688 0.16406 0.1875 0.25 0.46875 0.25 0.84375z"/>
  </symbol>
  <symbol id="n" overflow="visible">
   <path d="m0.46875-3.6719h1.5625c0.46875 0 0.82812 0.10547 1.0781 0.3125 0.25 0.21094 0.375 0.50781 0.375 0.89062 0 0.38672-0.125 0.68359-0.375 0.89062-0.25 0.21094-0.60938 0.3125-1.0781 0.3125h-0.625v1.2656h-0.9375zm0.9375 0.6875v1.0312h0.53125c0.17578 0 0.3125-0.039063 0.40625-0.125 0.10156-0.09375 0.15625-0.22266 0.15625-0.39062 0-0.16406-0.054688-0.28906-0.15625-0.375-0.09375-0.09375-0.23047-0.14062-0.40625-0.14062z"/>
  </symbol>
  <symbol id="m" overflow="visible">
   <path d="m0.42188-2.75h0.875v2.7031c0 0.36328-0.089844 0.64062-0.26562 0.82812-0.17969 0.19531-0.43359 0.29688-0.76562 0.29688h-0.4375v-0.5625h0.15625c0.16406 0 0.28125-0.042969 0.34375-0.125 0.0625-0.074219 0.09375-0.21875 0.09375-0.4375zm0-1.0781h0.875v0.71875h-0.875z"/>
  </symbol>
 </defs>
 <g>
  <path d="m587.59 279.78c0-131.13-106.68-237.81-237.81-237.81-131.13 0-237.81 106.68-237.81 237.81s106.68 237.81 237.81 237.81 237.81-106.68 237.81-237.81zm-444.82 0c0-114.15 92.871-207.02 207.02-207.02 114.14 0 207.01 92.867 207.01 207.02 0 114.15-92.871 207.01-207.01 207.01-114.14 0-207.02-92.863-207.02-207.01zm236.56 115.48v-156.28s37.887 37.883 61.344 61.352c10.023 10.02 26.273 10.02 36.297 0 1.6523-1.6523 3.3203-3.3281 4.9727-4.9805 10.023-10.02 10.023-26.27 0-36.293-30.707-30.715-91.664-91.664-112.92-112.91-4.8086-4.8125-11.34-7.5195-18.145-7.5195h-2.1953c-6.8008 0-13.328 2.707-18.145 7.5195-21.25 21.25-82.203 82.199-112.91 112.91-10.023 10.023-10.023 26.273 0 36.293 1.6484 1.6523 3.3281 3.3281 4.9727 4.9805 10.023 10.02 26.27 10.02 36.293 0 23.461-23.465 61.352-61.352 61.352-61.352v156.28c0 14.176 11.492 25.664 25.664 25.664h7.7539c14.176 0 25.664-11.488 25.664-25.664z" fill="#030304" fill-rule="evenodd"/>
  <g>
   <use x="70" y="575.109375" xlink:href="#v"/>
   <use x="73.695312" y="575.109375" xlink:href="#b"/>
   <use x="76.179688" y="575.109375" xlink:href="#a"/>
   <use x="79.59375" y="575.109375" xlink:href="#l"/>
   <use x="82.992188" y="575.109375" xlink:href="#c"/>
   <use x="85.402344" y="575.109375" xlink:href="#a"/>
   <use x="88.816406" y="575.109375" xlink:href="#k"/>
   <use x="94.175781" y="575.109375" xlink:href="#j"/>
   <use x="97.777344" y="575.109375" xlink:href="#i"/>
   <use x="102.816406" y="575.109375" xlink:href="#h"/>
   <use x="106.253906" y="575.109375" xlink:href="#b"/>
   <use x="108.738281" y="575.109375" xlink:href="#g"/>
   <use x="110.464844" y="575.109375" xlink:href="#f"/>
   <use x="115.203125" y="575.109375" xlink:href="#u"/>
   <use x="120.214844" y="575.109375" xlink:href="#g"/>
   <use x="121.941406" y="575.109375" xlink:href="#e"/>
   <use x="123.667969" y="575.109375" xlink:href="#e"/>
   <use x="125.394531" y="575.109375" xlink:href="#a"/>
   <use x="128.808594" y="575.109375" xlink:href="#b"/>
   <use x="70" y="580.144531" xlink:href="#t"/>
   <use x="72.191406" y="580.144531" xlink:href="#b"/>
   <use x="74.675781" y="580.144531" xlink:href="#d"/>
   <use x="78.132812" y="580.144531" xlink:href="#s"/>
   <use x="85.136719" y="580.144531" xlink:href="#c"/>
   <use x="87.542969" y="580.144531" xlink:href="#r"/>
   <use x="91.128906" y="580.144531" xlink:href="#a"/>
   <use x="96.296875" y="580.144531" xlink:href="#q"/>
   <use x="100.511719" y="580.144531" xlink:href="#d"/>
   <use x="103.96875" y="580.144531" xlink:href="#p"/>
   <use x="107.554688" y="580.144531" xlink:href="#o"/>
   <use x="112.894531" y="580.144531" xlink:href="#n"/>
   <use x="116.585938" y="580.144531" xlink:href="#b"/>
   <use x="119.070312" y="580.144531" xlink:href="#d"/>
   <use x="122.527344" y="580.144531" xlink:href="#m"/>
   <use x="124.253906" y="580.144531" xlink:href="#a"/>
   <use x="127.671875" y="580.144531" xlink:href="#f"/>
   <use x="130.65625" y="580.144531" xlink:href="#c"/>
  </g>
 </g>
</svg>
